<svg xmlns="http://www.w3.org/2000/svg" version="1.1" xmlns:xlink="http://www.w3.org/1999/xlink" xmlns:svgjs="http://svgjs.dev/svgjs" width="2000" height="383" viewBox="0 0 2000 383"><g transform="matrix(1,0,0,1,2.6104220942555685,0.221401094120381)"><svg viewBox="0 0 396 76" data-background-color="#ffffff" preserveAspectRatio="xMidYMid meet" height="383" width="2000" xmlns="http://www.w3.org/2000/svg" xmlns:xlink="http://www.w3.org/1999/xlink"><g id="tight-bounds" transform="matrix(1,0,0,1,0.26721107775085784,-0.027297001498737927)"><svg viewBox="0 0 395.52 76.00017184749586" height="76.00017184749586" width="395.52"><g><svg viewBox="0 0 480.0298275076243 92.23894969281767" height="76.00017184749586" width="395.52"><g transform="matrix(1,0,0,1,84.50982750762431,23.417743723020255)"><svg viewBox="0 0 395.52 45.40346224677716" height="45.40346224677716" width="395.52"><g id="textblocktransform"><svg viewBox="0 0 395.52 45.40346224677716" height="45.40346224677716" width="395.52" id="textblock"><g><svg viewBox="0 0 395.52 45.40346224677716" height="45.40346224677716" width="395.52"><g transform="matrix(1,0,0,1,0,0)"><svg width="395.52" viewBox="2.15 -36.25 407.22 46.75" height="45.40346224677716" data-palette-color="#6366f1"><path d="M18.15-35Q24.75-35 29-32.33 33.25-29.65 33.35-24.4L33.35-24.4 33.35-23.8 23-23.8 23-24Q23-25.5 21.9-26.5 20.8-27.5 18.55-27.5L18.55-27.5Q16.35-27.5 15.18-26.85 14-26.2 14-25.25L14-25.25Q14-23.9 15.6-23.25 17.2-22.6 20.75-21.9L20.75-21.9Q24.9-21.05 27.58-20.13 30.25-19.2 32.25-17.1 34.25-15 34.3-11.4L34.3-11.4Q34.3-5.3 30.18-2.35 26.05 0.6 19.15 0.6L19.15 0.6Q11.1 0.6 6.63-2.1 2.15-4.8 2.15-11.65L2.15-11.65 12.6-11.65Q12.6-9.05 13.95-8.18 15.3-7.3 18.15-7.3L18.15-7.3Q20.25-7.3 21.63-7.75 23-8.2 23-9.6L23-9.6Q23-10.85 21.48-11.48 19.95-12.1 16.5-12.8L16.5-12.8Q12.3-13.7 9.55-14.68 6.8-15.65 4.75-17.9 2.7-20.15 2.7-24L2.7-24Q2.7-29.65 7.08-32.33 11.45-35 18.15-35L18.15-35ZM66.4 0L58.25 0 57.6-4Q56.05-1.85 53.52-0.63 51 0.6 48.2 0.6L48.2 0.6Q43.6 0.6 41.3-1.95 39-4.5 39-9.3L39-9.3 39-26.4 48.95-26.4 48.95-10.5Q48.95-8.8 49.82-7.78 50.7-6.75 52.3-6.75L52.3-6.75Q54.15-6.75 55.3-7.95 56.45-9.15 56.45-10.9L56.45-10.9 56.45-26.4 66.4-26.4 66.4 0ZM107.5-27Q112-27 114.25-24.43 116.5-21.85 116.5-17.1L116.5-17.1 116.5 0 106.55 0 106.55-15.9Q106.55-17.6 105.72-18.63 104.9-19.65 103.4-19.65L103.4-19.65Q101.65-19.65 100.55-18.45 99.45-17.25 99.45-15.5L99.45-15.5 99.45 0 89.5 0 89.5-15.9Q89.5-17.6 88.67-18.63 87.85-19.65 86.35-19.65L86.35-19.65Q84.6-19.65 83.5-18.45 82.4-17.25 82.4-15.5L82.4-15.5 82.4 0 72.45 0 72.45-26.4 80.6-26.4 81.25-22.45Q82.75-24.55 85.22-25.78 87.7-27 90.45-27L90.45-27Q96.4-27 98.45-22.45L98.45-22.45Q100-24.55 102.42-25.78 104.84-27 107.5-27L107.5-27ZM157.49-27Q161.99-27 164.24-24.43 166.49-21.85 166.49-17.1L166.49-17.1 166.49 0 156.54 0 156.54-15.9Q156.54-17.6 155.72-18.63 154.89-19.65 153.39-19.65L153.39-19.65Q151.64-19.65 150.54-18.45 149.44-17.25 149.44-15.5L149.44-15.5 149.44 0 139.49 0 139.49-15.9Q139.49-17.6 138.67-18.63 137.84-19.65 136.34-19.65L136.34-19.65Q134.59-19.65 133.49-18.45 132.39-17.25 132.39-15.5L132.39-15.5 132.39 0 122.44 0 122.44-26.4 130.59-26.4 131.24-22.45Q132.74-24.55 135.22-25.78 137.69-27 140.44-27L140.44-27Q146.39-27 148.44-22.45L148.44-22.45Q149.99-24.55 152.42-25.78 154.84-27 157.49-27L157.49-27ZM185.49-27Q191.54-27 195.34-24.98 199.14-22.95 199.14-18.4L199.14-18.4 199.14-8.1Q199.14-7.25 199.54-6.7 199.94-6.15 200.74-6.15L200.74-6.15 202.54-6.15 202.54-0.4Q202.39-0.3 201.76-0.08 201.14 0.15 199.99 0.38 198.84 0.6 197.34 0.6L197.34 0.6Q194.44 0.6 192.56-0.28 190.69-1.15 189.99-2.7L189.99-2.7Q188.09-1.2 185.74-0.3 183.39 0.6 180.24 0.6L180.24 0.6Q170.94 0.6 170.94-6.8L170.94-6.8Q170.94-10.65 173.01-12.68 175.09-14.7 178.99-15.45 182.89-16.2 189.19-16.2L189.19-16.2 189.19-17.5Q189.19-19.05 188.12-19.85 187.04-20.65 185.34-20.65L185.34-20.65Q183.79-20.65 182.66-20.1 181.54-19.55 181.54-18.35L181.54-18.35 181.54-18.15 171.74-18.15Q171.69-18.4 171.69-18.85L171.69-18.85Q171.69-22.6 175.26-24.8 178.84-27 185.49-27L185.49-27ZM189.19-11.5Q184.94-11.5 182.91-10.58 180.89-9.65 180.89-8.1L180.89-8.1Q180.89-5.6 184.29-5.6L184.29-5.6Q186.24-5.6 187.72-6.65 189.19-7.7 189.19-9.25L189.19-9.25 189.19-11.5ZM221.84-27.05Q222.99-27.05 223.89-26.78 224.79-26.5 224.79-26.45L224.79-26.45 224.79-18.1 221.59-18.1Q218.49-18.1 217.11-16.5 215.74-14.9 215.74-11.75L215.74-11.75 215.74 0 205.79 0 205.79-26.4 213.94-26.4 214.59-22.4Q215.49-24.7 217.44-25.88 219.39-27.05 221.84-27.05L221.84-27.05ZM249.04-0.8Q246.99 4.75 244.01 7.63 241.04 10.5 235.69 10.5L235.69 10.5Q232.44 10.5 229.94 9.6L229.94 9.6 229.94 3.65 233.94 3.65Q237.69 3.65 238.39 0L238.39 0 227.89-26.4 238.59-26.4 243.64-8.85 243.99-8.85 248.64-26.4 258.44-26.4 249.04-0.8ZM309.83-25.6L298.58-25.6 298.58 0 287.53 0 287.53-25.6 276.23-25.6 276.23-34.4 309.83-34.4 309.83-25.6ZM324.48-29.5L314.53-29.5 314.53-36.25 324.48-36.25 324.48-29.5ZM324.48 0L314.53 0 314.53-26.4 324.48-26.4 324.48 0ZM365.88-27Q370.38-27 372.63-24.43 374.88-21.85 374.88-17.1L374.88-17.1 374.88 0 364.93 0 364.93-15.9Q364.93-17.6 364.1-18.63 363.27-19.65 361.77-19.65L361.77-19.65Q360.02-19.65 358.93-18.45 357.82-17.25 357.82-15.5L357.82-15.5 357.82 0 347.88 0 347.88-15.9Q347.88-17.6 347.05-18.63 346.22-19.65 344.72-19.65L344.72-19.65Q342.97-19.65 341.88-18.45 340.77-17.25 340.77-15.5L340.77-15.5 340.77 0 330.82 0 330.82-26.4 338.97-26.4 339.63-22.45Q341.13-24.55 343.6-25.78 346.07-27 348.82-27L348.82-27Q354.77-27 356.82-22.45L356.82-22.45Q358.38-24.55 360.8-25.78 363.22-27 365.88-27L365.88-27ZM394.47-27Q401.72-27 405.55-23.6 409.37-20.2 409.37-13.2L409.37-13.2 409.37-11.5 389.57-11.5Q389.57-8.65 390.85-7.2 392.12-5.75 394.87-5.75L394.87-5.75Q397.37-5.75 398.55-6.8 399.72-7.85 399.72-9.6L399.72-9.6 409.37-9.6Q409.37-4.8 405.72-2.1 402.07 0.6 395.07 0.6L395.07 0.6Q387.72 0.6 383.67-2.83 379.62-6.25 379.62-13.2L379.62-13.2Q379.62-20 383.57-23.5 387.52-27 394.47-27L394.47-27ZM394.87-20.65Q390.17-20.65 389.62-16.2L389.62-16.2 399.32-16.2Q399.32-18.25 398.15-19.45 396.97-20.65 394.87-20.65L394.87-20.65Z" opacity="1" transform="matrix(1,0,0,1,0,0)" fill="#6366f1" class="wordmark-text-0" data-fill-palette-color="primary" id="text-0"></path></svg></g></svg></g></svg></g></svg></g><g><svg viewBox="0 0 73.79115975425414 92.23894969281767" height="92.23894969281767" width="73.79115975425414"><g><svg xmlns="http://www.w3.org/2000/svg" data-name="Icon Set" viewBox="4 2 16 20" x="0" y="0" height="92.23894969281767" width="73.79115975425414" class="icon-icon-0" data-fill-palette-color="accent" id="icon-0"><path d="M20 6V21a1 1 0 0 1-1 1H5a1 1 0 0 1-1-1V6A1 1 0 0 1 5 5H7V6H5V21H19V6H17V5h2A1 1 0 0 1 20 6ZM14 4a2 2 0 0 0-4 0H8V7h8V4Zm4 5H6v1H18Zm0 3H6v1H18Zm0 3H6v1H18Zm0 3H6v1H18Z" fill="#6366f1" data-fill-palette-color="accent"></path></svg></g></svg></g></svg></g><defs></defs></svg><rect width="395.52" height="76.00017184749586" fill="none" stroke="none" visibility="hidden"></rect></g></svg></g></svg>